<?xml version="1.0" encoding="iso-8859-1"?>
<!-- Generator: Adobe Illustrator 19.0.0, SVG Export Plug-In . SVG Version: 6.00 Build 0)  -->
<svg version="1.1" id="Layer_1" xmlns="http://www.w3.org/2000/svg" xmlns:xlink="http://www.w3.org/1999/xlink" x="0px" y="0px"
	 viewBox="0 0 512 512" style="enable-background:new 0 0 512 512;" xml:space="preserve">
<circle style="fill:#71E2EF;" cx="256" cy="256" r="256"/>
<path style="fill:#38C6D9;" d="M512,256c0-10.23-0.619-20.313-1.786-30.23L369.778,85.333l-68.939,6.034l-117.495-1.688
	l-41.122,24.098L277.64,249.196l-30.689,59.099L93.52,389.746L213.22,508.421C227.133,510.762,241.421,512,256,512
	C397.384,512,512,397.384,512,256z"/>
<path style="fill:#477F3C;" d="M170.667,398.222c15.71,0,28.444-12.734,28.444-28.444s-12.734-28.444-28.444-28.444
	c0-15.71-12.734-28.444-28.444-28.444c-10.65,0-19.918,5.863-24.793,14.527c-9.004,1.472-16.096,8.564-17.568,17.568
	c-8.664,4.875-14.527,14.143-14.527,24.793c0,15.71,12.734,28.444,28.444,28.444H170.667z"/>
<path style="fill:#2E5E24;" d="M170.667,341.333c0-15.71-12.734-28.444-28.444-28.444c-0.386,0-0.767,0.024-1.148,0.04v85.294
	h29.593c15.71,0,28.444-12.734,28.444-28.444S186.377,341.333,170.667,341.333z"/>
<path style="fill:#477F3C;" d="M341.333,398.222c-15.71,0-28.444-12.734-28.444-28.444s12.734-28.444,28.444-28.444
	c0-15.71,12.734-28.444,28.444-28.444c10.65,0,19.918,5.863,24.793,14.527c9.004,1.472,16.096,8.564,17.568,17.568
	c8.664,4.875,14.527,14.143,14.527,24.793c0,15.71-12.734,28.444-28.444,28.444H341.333z"/>
<path style="fill:#2E5E24;" d="M412.139,344.985c-1.472-9.004-8.564-16.096-17.568-17.568c-4.875-8.664-14.143-14.527-24.793-14.527
	c-0.388,0-0.765,0.043-1.148,0.059v85.275h29.593c15.71,0,28.444-12.734,28.444-28.444
	C426.667,359.128,420.804,349.86,412.139,344.985z"/>
<rect x="156.013" y="98.263" style="fill:#FF5419;" width="199.973" height="299.96"/>
<rect x="256" y="98.263" style="fill:#C92F00;" width="99.987" height="299.96"/>
<rect x="177.786" y="135.637" style="fill:#FFFFFF;" width="34.84" height="34.84"/>
<rect x="174.752" y="165.547" style="fill:#EAA22F;" width="40.903" height="7.575"/>
<rect x="299.373" y="135.637" style="fill:#D0D1D3;" width="34.84" height="34.84"/>
<rect x="296.339" y="165.547" style="fill:#E09112;" width="40.903" height="7.575"/>
<rect x="238.571" y="135.637" style="fill:#FFFFFF;" width="34.84" height="34.84"/>
<rect x="256" y="135.637" style="fill:#D0D1D3;" width="17.429" height="34.84"/>
<rect x="235.554" y="165.547" style="fill:#EAA22F;" width="40.903" height="7.575"/>
<rect x="177.786" y="198.128" style="fill:#FFFFFF;" width="34.84" height="34.84"/>
<rect x="174.752" y="228.038" style="fill:#EAA22F;" width="40.903" height="7.575"/>
<rect x="299.373" y="198.128" style="fill:#D0D1D3;" width="34.84" height="34.84"/>
<rect x="296.339" y="228.038" style="fill:#E09112;" width="40.903" height="7.575"/>
<rect x="238.571" y="198.128" style="fill:#FFFFFF;" width="34.84" height="34.84"/>
<rect x="256" y="198.128" style="fill:#D0D1D3;" width="17.429" height="34.84"/>
<rect x="235.554" y="228.038" style="fill:#EAA22F;" width="40.903" height="7.575"/>
<rect x="177.786" y="260.62" style="fill:#FFFFFF;" width="34.84" height="34.84"/>
<rect x="174.752" y="290.53" style="fill:#EAA22F;" width="40.903" height="7.575"/>
<rect x="299.373" y="260.62" style="fill:#D0D1D3;" width="34.84" height="34.84"/>
<rect x="296.339" y="290.53" style="fill:#E09112;" width="40.903" height="7.575"/>
<g>
	<rect x="238.571" y="260.62" style="fill:#D0D1D3;" width="34.84" height="34.84"/>
	<rect x="256" y="260.62" style="fill:#D0D1D3;" width="17.429" height="34.84"/>
</g>
<rect x="235.554" y="290.53" style="fill:#EAA22F;" width="40.903" height="7.575"/>
<g>
	<rect x="256" y="165.547" style="fill:#E09112;" width="20.451" height="7.575"/>
	<rect x="256" y="228.038" style="fill:#E09112;" width="20.451" height="7.575"/>
	<rect x="256" y="290.53" style="fill:#E09112;" width="20.451" height="7.575"/>
</g>
<rect x="231.003" y="323.232" style="fill:#B54324;" width="49.993" height="74.99"/>
<rect x="256" y="323.232" style="fill:#930000;" width="24.997" height="74.99"/>
<rect x="142.222" y="85.333" style="fill:#B54324;" width="227.556" height="28.444"/>
<rect x="256" y="85.333" style="fill:#930000;" width="113.778" height="28.444"/>
<g>
</g>
<g>
</g>
<g>
</g>
<g>
</g>
<g>
</g>
<g>
</g>
<g>
</g>
<g>
</g>
<g>
</g>
<g>
</g>
<g>
</g>
<g>
</g>
<g>
</g>
<g>
</g>
<g>
</g>
</svg>
